<?xml version="1.0" encoding="utf-8"?>
<!-- Generator: Adobe Illustrator 16.0.0, SVG Export Plug-In . SVG Version: 6.00 Build 0)  -->
<!DOCTYPE svg PUBLIC "-//W3C//DTD SVG 1.1//EN" "http://www.w3.org/Graphics/SVG/1.1/DTD/svg11.dtd">
<svg version="1.1" id="Layer_1" xmlns="http://www.w3.org/2000/svg" xmlns:xlink="http://www.w3.org/1999/xlink" x="0px" y="0px"
	 width="407.283px" height="407.239px" viewBox="0 0 407.283 407.239" enable-background="new 0 0 407.283 407.239"
	 xml:space="preserve">
<path id="path2168" fill="#FFFFFF" d="M203.642,0c-1.007,0-2.012,0.014-3.012,0.042C89.606,1.655,0,92.237,0,203.642
	c0,111.531,89.812,202.188,201.011,203.598c-54.993-1.395-99.19-46.451-99.19-101.777c0-56.205,45.616-101.82,101.821-101.82
	s101.82-45.616,101.82-101.821S259.847,0,203.642,0z"/>
<path d="M203.642,77.881c13.215,0,23.94,10.725,23.94,23.939c0,13.214-10.726,23.94-23.94,23.94c-13.214,0-23.94-10.726-23.94-23.94
	C179.702,88.606,190.427,77.881,203.642,77.881z"/>
<path id="path5191" stroke="#000000" stroke-width="2" stroke-linecap="square" stroke-linejoin="round" d="M203.642,407.239
	c1.007,0,2.012-0.012,3.012-0.041c111.023-1.613,200.63-92.195,200.63-203.598c0-111.532-89.812-202.189-201.011-203.6
	c54.992,1.396,99.189,46.452,99.189,101.778c0,56.205-45.615,101.821-101.82,101.821s-101.821,45.614-101.821,101.819
	S147.437,407.239,203.642,407.239z"/>
<g>
	<path fill="#FFFFFF" d="M203.642,281.481c13.215,0,23.94,10.725,23.94,23.939c0,13.213-10.726,23.939-23.94,23.939
		c-13.214,0-23.94-10.727-23.94-23.939C179.702,292.206,190.427,281.481,203.642,281.481z"/>
</g>
</svg>
