<?xml version="1.0" encoding="utf-8"?>
<!-- Generator: Adobe Illustrator 16.0.0, SVG Export Plug-In . SVG Version: 6.00 Build 0)  -->
<!DOCTYPE svg PUBLIC "-//W3C//DTD SVG 1.1//EN" "http://www.w3.org/Graphics/SVG/1.1/DTD/svg11.dtd">
<svg version="1.1" id="Layer_1" xmlns="http://www.w3.org/2000/svg" xmlns:xlink="http://www.w3.org/1999/xlink" x="0px" y="0px"
	 width="124.5px" height="119px" viewBox="24.5 7.25 124.5 119" enable-background="new 24.5 7.25 124.5 119" xml:space="preserve">
<path fill="none" stroke="#939598" stroke-width="0.5" stroke-miterlimit="10" d="M27.833,74.355v30L42.625,77.75
	C42.625,77.75,37.182,70.872,27.833,74.355"/>
<path fill="none" stroke="#939598" stroke-width="0.5" stroke-miterlimit="10" d="M40.75,94.875
	c-9.389,3.375-10.524,13.311-10.524,13.311l28.045,7.961L40.75,94.875z"/>
<rect x="28.146" y="71.469" width="1" height="3.5"/>
<rect x="28.276" y="104" width="1" height="3.5"/>
<line fill="none" stroke="#000000" stroke-miterlimit="10" x1="145.5" y1="124" x2="145.5" y2="23.5"/>
<line fill="none" stroke="#000000" stroke-miterlimit="10" x1="121.021" y1="123.646" x2="139.521" y2="123.646"/>
<polyline fill="none" stroke="#000000" stroke-miterlimit="10" points="78.271,123.646 72.271,123.646 72.271,116.146 
	58.271,116.146 27.833,107.523 27.833,104 "/>
<line fill="none" stroke="#939598" stroke-width="0.5" stroke-miterlimit="10" x1="78.062" y1="123.646" x2="121.062" y2="123.646"/>
<line fill="none" stroke="#000000" stroke-miterlimit="10" x1="27.833" y1="74.969" x2="27.833" y2="25.5"/>
<g>
	<line fill="none" stroke="#939598" stroke-width="0.5" stroke-miterlimit="10" x1="83.417" y1="17.918" x2="127.417" y2="17.918"/>
	<line fill="none" stroke="#000000" stroke-miterlimit="10" x1="127.417" y1="17.918" x2="140.417" y2="17.918"/>
	<line fill="none" stroke="#000000" stroke-miterlimit="10" x1="40.417" y1="17.918" x2="83.417" y2="17.918"/>
</g>
<g>
	<g>
		<text transform="matrix(1 0 0 1 108.9697 49.2324)" fill="#10CDFF" font-family="'Courier-Bold'" font-size="7.3464">100.5”</text>
	</g>
</g>
<g>
	<g>
		<text transform="matrix(1 0 0 1 130.4141 14.7324)" fill="#10CDFF" font-family="'Courier-Bold'" font-size="7.3464">13”</text>
	</g>
</g>
<g>
	<g>
		<text transform="matrix(1 0 0 1 102.2471 14.7324)" fill="#10CDFF" font-family="'Courier-Bold'" font-size="7.3464">44”</text>
	</g>
</g>
<g>
	<g>
		<text transform="matrix(1 0 0 1 57.2461 14.7324)" fill="#10CDFF" font-family="'Courier-Bold'" font-size="7.3464">43”</text>
	</g>
</g>
<g>
	<g>
		<text transform="matrix(1 0 0 1 38.0796 49.2324)" fill="#10CDFF" font-family="'Courier-Bold'" font-size="7.3464">46”</text>
	</g>
</g>
<g>
	<g>
		<text transform="matrix(1 0 0 1 38.0796 92.3984)" fill="#10CDFF" font-family="'Courier-Bold'" font-size="7.3464">37”</text>
	</g>
</g>
<g>
	<g>
		<text transform="matrix(1 0 0 1 60.7461 112.2305)" fill="#10CDFF" font-family="'Courier-Bold'" font-size="7.3464">14”</text>
	</g>
</g>
<rect x="140.417" y="17.5" width="5.5" height="6"/>
<rect x="27.417" y="17.5" width="13" height="8"/>
<rect x="139.5" y="118" width="6" height="6"/>
<g>
	<g>
		<line fill="none" stroke="#00AEBB" stroke-width="0.5" stroke-miterlimit="10" x1="31.734" y1="47.417" x2="36.729" y2="47.417"/>
		<g>
			<polygon fill="#00AEBB" points="32.464,49.91 28.146,47.417 32.464,44.923 			"/>
		</g>
	</g>
</g>
<g>
	<g>
		
			<line fill="none" stroke="#00AEBB" stroke-width="0.5" stroke-miterlimit="10" x1="141.13" y1="47.417" x2="136.135" y2="47.417"/>
		<g>
			<polygon fill="#00AEBB" points="140.4,44.923 144.718,47.417 140.4,49.91 			"/>
		</g>
	</g>
</g>
<g>
	<g>
		<line fill="none" stroke="#00AEBB" stroke-width="0.5" stroke-miterlimit="10" x1="31.734" y1="90.25" x2="36.729" y2="90.25"/>
		<g>
			<polygon fill="#00AEBB" points="32.464,92.743 28.146,90.25 32.464,87.757 			"/>
		</g>
	</g>
</g>
</svg>
