<?xml version="1.0" encoding="utf-8"?>
<!-- Generator: Adobe Illustrator 16.0.0, SVG Export Plug-In . SVG Version: 6.00 Build 0)  -->
<!DOCTYPE svg PUBLIC "-//W3C//DTD SVG 1.1//EN" "http://www.w3.org/Graphics/SVG/1.1/DTD/svg11.dtd">
<svg version="1.1" id="Layer_1" xmlns="http://www.w3.org/2000/svg" xmlns:xlink="http://www.w3.org/1999/xlink" x="0px" y="0px"
	 width="171.333px" height="147.5px" viewBox="4.5 0 171.333 147.5" enable-background="new 4.5 0 171.333 147.5"
	 xml:space="preserve">
<g>
	<g>
		<line fill="none" stroke="#00AEBB" stroke-width="0.5" stroke-miterlimit="10" x1="11.653" y1="43.245" x2="16.647" y2="43.245"/>
		<g>
			<polygon fill="#00AEBB" points="12.382,45.738 8.064,43.245 12.382,40.752 			"/>
		</g>
	</g>
</g>
<g>
	<g>
		
			<line fill="none" stroke="#10CDFF" stroke-width="0.5" stroke-miterlimit="10" x1="11.653" y1="117.729" x2="16.647" y2="117.729"/>
		<g>
			<polygon fill="#10CDFF" points="12.382,120.222 8.064,117.729 12.382,115.235 			"/>
		</g>
	</g>
</g>
<path fill="none" stroke="#939598" stroke-width="0.5" stroke-miterlimit="10" d="M156.764,67.729v30l13.849-25.482
	C170.612,72.245,166.112,64.245,156.764,67.729"/>
<line fill="none" stroke="#000000" stroke-miterlimit="10" x1="156.764" y1="67.745" x2="156.764" y2="10.745"/>
<line fill="none" stroke="#000000" stroke-miterlimit="10" x1="156.764" y1="97.214" x2="156.764" y2="132.214"/>
<line fill="none" stroke="#000000" stroke-miterlimit="10" x1="79.764" y1="132.214" x2="156.764" y2="132.214"/>
<g>
	<line fill="none" stroke="#939598" stroke-width="0.5" stroke-miterlimit="10" x1="62.262" y1="10.745" x2="153.945" y2="10.745"/>
	<line fill="none" stroke="#000000" stroke-miterlimit="10" x1="153.762" y1="10.745" x2="156.762" y2="10.745"/>
</g>
<line fill="none" stroke="#000000" stroke-miterlimit="10" x1="66.778" y1="10.745" x2="7.857" y2="10.745"/>
<rect x="45.938" y="11.237" width="16" height="8.5"/>
<g>
	<g>
		<text transform="matrix(1 0 0 1 86.6172 7.5049)" fill="#10CDFF" font-family="'Courier-Bold'" font-size="7.3464">94.5”</text>
	</g>
</g>
<g>
	<g>
		<text transform="matrix(1 0 0 1 25.1084 7.5049)" fill="#10CDFF" font-family="'Courier-Bold'" font-size="7.3464">38”</text>
	</g>
</g>
<g>
	<g>
		<g>
			<text transform="matrix(1 0 0 1 125.709 145.498)" fill="#10CDFF" font-family="'Courier-Bold'" font-size="7.3464">77”</text>
		</g>
	</g>
</g>
<g>
	<g>
		<text transform="matrix(1 0 0 1 18.4482 145.498)" fill="#10CDFF" font-family="'Courier-Bold'" font-size="7.3464">33”</text>
	</g>
</g>
<g>
	<g>
		<text transform="matrix(1 0 0 1 18.1396 120.3359)" fill="#10CDFF" font-family="'Courier-Bold'" font-size="7.3464">23.5”</text>
	</g>
</g>
<g>
	<text transform="matrix(1 0 0 1 18.1396 45.3223)" fill="#10CDFF" font-family="'Courier-Bold'" font-size="7.3464">61.5”</text>
</g>
<g>
	<g>
		<g>
			<text transform="matrix(1 0 0 1 161.0273 45.3223)" fill="#10CDFF" font-family="'Courier-Bold'" font-size="7.3464">54”</text>
		</g>
	</g>
</g>
<g>
	<g>
		<g>
			<text transform="matrix(1 0 0 1 161.0273 120.3359)" fill="#10CDFF" font-family="'Courier-Bold'" font-size="7.3464">35”</text>
		</g>
	</g>
</g>
<g>
	<g>
		<path fill="#D1D3D4" d="M154.082,48.818c0,1.101-0.898,2-2,2h-61c-1.103,0-2-0.899-2-2v-33c0-1.1,0.897-2,2-2h61
			c1.102,0,2,0.9,2,2V48.818z"/>
	</g>
	<g>
		<g>
			<text transform="matrix(1 0 0 1 107.0039 33.7373)" font-family="'LucidaGrande'" font-size="7.3464">Karlstad</text>
		</g>
	</g>
</g>
<rect x="155.32" y="64.245" width="1" height="3.5"/>
<line fill="none" stroke="#000000" stroke-miterlimit="10" x1="7.857" y1="75.745" x2="7.857" y2="10.745"/>
<line fill="none" stroke="#000000" stroke-miterlimit="10" x1="7.857" y1="105.214" x2="7.857" y2="132.214"/>
<line fill="none" stroke="#000000" stroke-miterlimit="10" x1="40.857" y1="132.214" x2="7.857" y2="132.214"/>
<rect x="8.064" y="72.245" width="1.75" height="3.5"/>
<rect x="8.064" y="105.214" width="1.75" height="3.5"/>
<rect x="155.32" y="97.214" width="1" height="3.5"/>
<g>
	<rect x="143.959" y="101.214" fill="#D1D3D4" width="11.75" height="30"/>
	<g>
		<g>
			<text transform="matrix(0 1 -1 0 147.375 107.0928)" font-family="'LucidaGrande'" font-size="7.3464">Helix</text>
		</g>
	</g>
</g>
<g>
	<rect x="113.168" y="119.464" fill="#D1D3D4" width="30" height="11.75"/>
	<g>
		<g>
			<text transform="matrix(1 0 0 1 119.0449 127.7979)" font-family="'LucidaGrande'" font-size="7.3464">Helix</text>
		</g>
	</g>
</g>
<g>
	<rect x="82.168" y="111.214" fill="#D1D3D4" width="30" height="20"/>
	<g>
		<g>
			<text transform="matrix(1 0 0 1 88.0449 127.7988)" font-family="'LucidaGrande'" font-size="7.3464">Helix</text>
		</g>
	</g>
</g>
</svg>
